<mxfile host="app.diagrams.net" modified="2023-12-04T18:40:08.666Z" agent="Mozilla/5.0 (Windows NT 10.0; Win64; x64) AppleWebKit/537.36 (KHTML, like Gecko) Chrome/119.0.0.0 Safari/537.36 OPR/105.0.0.0" etag="haGnjw6MjkGvqhYWKIvk" version="22.1.5" type="github">
  <diagram id="C5RBs43oDa-KdzZeNtuy" name="Page-1">
    <mxGraphModel dx="1823" dy="567" grid="1" gridSize="10" guides="1" tooltips="1" connect="1" arrows="1" fold="1" page="1" pageScale="1" pageWidth="827" pageHeight="1169" background="#FFFFCC" math="0" shadow="0">
      <root>
        <mxCell id="WIyWlLk6GJQsqaUBKTNV-0" />
        <mxCell id="WIyWlLk6GJQsqaUBKTNV-1" parent="WIyWlLk6GJQsqaUBKTNV-0" />
        <mxCell id="WIyWlLk6GJQsqaUBKTNV-2" value="" style="rounded=0;html=1;jettySize=auto;orthogonalLoop=1;fontSize=11;endArrow=block;endFill=0;endSize=8;strokeWidth=1;shadow=0;labelBackgroundColor=none;edgeStyle=orthogonalEdgeStyle;" parent="WIyWlLk6GJQsqaUBKTNV-1" source="WIyWlLk6GJQsqaUBKTNV-3" edge="1">
          <mxGeometry relative="1" as="geometry">
            <mxPoint x="220" y="80" as="targetPoint" />
          </mxGeometry>
        </mxCell>
        <mxCell id="WIyWlLk6GJQsqaUBKTNV-3" value="Audio_In.WAV" style="rounded=1;whiteSpace=wrap;html=1;fontSize=12;glass=0;strokeWidth=1;shadow=0;" parent="WIyWlLk6GJQsqaUBKTNV-1" vertex="1">
          <mxGeometry x="-110" y="20" width="120" height="40" as="geometry" />
        </mxCell>
        <mxCell id="8osJTeNLlfQxz4slNSNz-25" style="edgeStyle=orthogonalEdgeStyle;rounded=0;orthogonalLoop=1;jettySize=auto;html=1;exitX=0.5;exitY=1;exitDx=0;exitDy=0;" edge="1" parent="WIyWlLk6GJQsqaUBKTNV-1" source="8osJTeNLlfQxz4slNSNz-0">
          <mxGeometry relative="1" as="geometry">
            <mxPoint x="220" y="220" as="targetPoint" />
          </mxGeometry>
        </mxCell>
        <mxCell id="8osJTeNLlfQxz4slNSNz-36" style="edgeStyle=orthogonalEdgeStyle;rounded=0;orthogonalLoop=1;jettySize=auto;html=1;exitX=1;exitY=0.5;exitDx=0;exitDy=0;entryX=1;entryY=0.5;entryDx=0;entryDy=0;" edge="1" parent="WIyWlLk6GJQsqaUBKTNV-1" source="8osJTeNLlfQxz4slNSNz-0" target="8osJTeNLlfQxz4slNSNz-32">
          <mxGeometry relative="1" as="geometry">
            <mxPoint x="310" y="576.4000244140625" as="targetPoint" />
            <Array as="points">
              <mxPoint x="300" y="110" />
              <mxPoint x="300" y="550" />
            </Array>
          </mxGeometry>
        </mxCell>
        <mxCell id="8osJTeNLlfQxz4slNSNz-42" value="Spec&lt;br&gt;" style="edgeLabel;html=1;align=center;verticalAlign=middle;resizable=0;points=[];" vertex="1" connectable="0" parent="8osJTeNLlfQxz4slNSNz-36">
          <mxGeometry x="0.4067" y="2" relative="1" as="geometry">
            <mxPoint y="82" as="offset" />
          </mxGeometry>
        </mxCell>
        <mxCell id="8osJTeNLlfQxz4slNSNz-0" value="MFCC / Spec" style="rounded=0;whiteSpace=wrap;html=1;" vertex="1" parent="WIyWlLk6GJQsqaUBKTNV-1">
          <mxGeometry x="160" y="80" width="120" height="60" as="geometry" />
        </mxCell>
        <mxCell id="8osJTeNLlfQxz4slNSNz-1" value="WAVE2SPEC(Audio_In.WAV)" style="swimlane;whiteSpace=wrap;html=1;" vertex="1" parent="WIyWlLk6GJQsqaUBKTNV-1">
          <mxGeometry x="-150" y="90" width="180" height="50" as="geometry" />
        </mxCell>
        <mxCell id="8osJTeNLlfQxz4slNSNz-2" value="&lt;b&gt;return&amp;nbsp; Spec;&lt;/b&gt;" style="text;html=1;align=center;verticalAlign=middle;resizable=0;points=[];autosize=1;strokeColor=none;fillColor=none;" vertex="1" parent="8osJTeNLlfQxz4slNSNz-1">
          <mxGeometry y="20" width="100" height="30" as="geometry" />
        </mxCell>
        <mxCell id="8osJTeNLlfQxz4slNSNz-4" value="WAVE2MFCC(Audio_In.WAV)" style="swimlane;whiteSpace=wrap;html=1;" vertex="1" parent="WIyWlLk6GJQsqaUBKTNV-1">
          <mxGeometry x="-150" y="150" width="180" height="50" as="geometry" />
        </mxCell>
        <mxCell id="8osJTeNLlfQxz4slNSNz-5" value="&lt;b&gt;return&amp;nbsp; MFCC;&lt;/b&gt;" style="text;html=1;align=center;verticalAlign=middle;resizable=0;points=[];autosize=1;strokeColor=none;fillColor=none;" vertex="1" parent="8osJTeNLlfQxz4slNSNz-4">
          <mxGeometry y="20" width="100" height="30" as="geometry" />
        </mxCell>
        <mxCell id="8osJTeNLlfQxz4slNSNz-7" style="edgeStyle=orthogonalEdgeStyle;rounded=0;orthogonalLoop=1;jettySize=auto;html=1;exitX=0;exitY=0.5;exitDx=0;exitDy=0;exitPerimeter=0;entryX=0;entryY=0.5;entryDx=0;entryDy=0;endArrow=diamond;endFill=0;" edge="1" parent="WIyWlLk6GJQsqaUBKTNV-1" source="8osJTeNLlfQxz4slNSNz-6" target="8osJTeNLlfQxz4slNSNz-0">
          <mxGeometry relative="1" as="geometry">
            <mxPoint x="160" y="190" as="targetPoint" />
          </mxGeometry>
        </mxCell>
        <mxCell id="8osJTeNLlfQxz4slNSNz-6" value="" style="strokeWidth=2;html=1;shape=mxgraph.flowchart.annotation_2;align=left;labelPosition=right;pointerEvents=1;rotation=-180;" vertex="1" parent="WIyWlLk6GJQsqaUBKTNV-1">
          <mxGeometry x="30" y="130" width="50" height="50" as="geometry" />
        </mxCell>
        <mxCell id="8osJTeNLlfQxz4slNSNz-19" style="edgeStyle=orthogonalEdgeStyle;rounded=0;orthogonalLoop=1;jettySize=auto;html=1;exitX=0.5;exitY=1;exitDx=0;exitDy=0;entryX=0.5;entryY=0;entryDx=0;entryDy=0;" edge="1" parent="WIyWlLk6GJQsqaUBKTNV-1" source="8osJTeNLlfQxz4slNSNz-8" target="8osJTeNLlfQxz4slNSNz-18">
          <mxGeometry relative="1" as="geometry" />
        </mxCell>
        <mxCell id="8osJTeNLlfQxz4slNSNz-20" value="YES" style="edgeLabel;html=1;align=center;verticalAlign=middle;resizable=0;points=[];" vertex="1" connectable="0" parent="8osJTeNLlfQxz4slNSNz-19">
          <mxGeometry x="-0.1667" y="3" relative="1" as="geometry">
            <mxPoint x="-3" as="offset" />
          </mxGeometry>
        </mxCell>
        <mxCell id="8osJTeNLlfQxz4slNSNz-48" style="edgeStyle=orthogonalEdgeStyle;rounded=0;orthogonalLoop=1;jettySize=auto;html=1;exitX=1;exitY=0.5;exitDx=0;exitDy=0;entryX=0;entryY=0.25;entryDx=0;entryDy=0;" edge="1" parent="WIyWlLk6GJQsqaUBKTNV-1" source="8osJTeNLlfQxz4slNSNz-8" target="8osJTeNLlfQxz4slNSNz-35">
          <mxGeometry relative="1" as="geometry">
            <mxPoint x="150" y="760" as="targetPoint" />
            <Array as="points">
              <mxPoint x="400" y="265" />
              <mxPoint x="400" y="710" />
              <mxPoint x="140" y="710" />
              <mxPoint x="140" y="745" />
            </Array>
          </mxGeometry>
        </mxCell>
        <mxCell id="8osJTeNLlfQxz4slNSNz-50" value="NO" style="edgeLabel;html=1;align=center;verticalAlign=middle;resizable=0;points=[];" vertex="1" connectable="0" parent="8osJTeNLlfQxz4slNSNz-48">
          <mxGeometry x="-0.33" y="1" relative="1" as="geometry">
            <mxPoint as="offset" />
          </mxGeometry>
        </mxCell>
        <mxCell id="8osJTeNLlfQxz4slNSNz-51" value="Spec&lt;br&gt;" style="edgeLabel;html=1;align=center;verticalAlign=middle;resizable=0;points=[];" vertex="1" connectable="0" parent="8osJTeNLlfQxz4slNSNz-48">
          <mxGeometry x="0.84" y="-2" relative="1" as="geometry">
            <mxPoint x="245" y="-218" as="offset" />
          </mxGeometry>
        </mxCell>
        <mxCell id="8osJTeNLlfQxz4slNSNz-8" value="Is It human&amp;nbsp;&lt;br&gt;Voice?" style="rhombus;whiteSpace=wrap;html=1;" vertex="1" parent="WIyWlLk6GJQsqaUBKTNV-1">
          <mxGeometry x="160" y="220" width="120" height="90" as="geometry" />
        </mxCell>
        <mxCell id="8osJTeNLlfQxz4slNSNz-11" value="" style="endArrow=classic;html=1;rounded=0;exitX=0.5;exitY=1;exitDx=0;exitDy=0;entryX=0.5;entryY=0;entryDx=0;entryDy=0;" edge="1" parent="WIyWlLk6GJQsqaUBKTNV-1" source="8osJTeNLlfQxz4slNSNz-0" target="8osJTeNLlfQxz4slNSNz-8">
          <mxGeometry relative="1" as="geometry">
            <mxPoint x="210" y="330" as="sourcePoint" />
            <mxPoint x="310" y="330" as="targetPoint" />
            <Array as="points">
              <mxPoint x="220" y="190" />
            </Array>
          </mxGeometry>
        </mxCell>
        <mxCell id="8osJTeNLlfQxz4slNSNz-12" value="MFCC" style="edgeLabel;resizable=0;html=1;align=center;verticalAlign=middle;" connectable="0" vertex="1" parent="8osJTeNLlfQxz4slNSNz-11">
          <mxGeometry relative="1" as="geometry" />
        </mxCell>
        <mxCell id="8osJTeNLlfQxz4slNSNz-21" style="edgeStyle=orthogonalEdgeStyle;rounded=0;orthogonalLoop=1;jettySize=auto;html=1;exitX=1;exitY=0.5;exitDx=0;exitDy=0;entryX=0;entryY=0.5;entryDx=0;entryDy=0;endArrow=diamond;endFill=0;" edge="1" parent="WIyWlLk6GJQsqaUBKTNV-1" source="8osJTeNLlfQxz4slNSNz-13" target="8osJTeNLlfQxz4slNSNz-8">
          <mxGeometry relative="1" as="geometry" />
        </mxCell>
        <mxCell id="8osJTeNLlfQxz4slNSNz-13" value="SpeachDetection(MFCC)" style="swimlane;whiteSpace=wrap;html=1;" vertex="1" parent="WIyWlLk6GJQsqaUBKTNV-1">
          <mxGeometry x="-150" y="210" width="180" height="60" as="geometry" />
        </mxCell>
        <mxCell id="8osJTeNLlfQxz4slNSNz-14" value="&lt;b&gt;return List(boolean)&lt;/b&gt;" style="text;html=1;align=center;verticalAlign=middle;resizable=0;points=[];autosize=1;strokeColor=none;fillColor=none;" vertex="1" parent="8osJTeNLlfQxz4slNSNz-13">
          <mxGeometry x="-5" y="30" width="140" height="30" as="geometry" />
        </mxCell>
        <mxCell id="8osJTeNLlfQxz4slNSNz-33" style="edgeStyle=orthogonalEdgeStyle;rounded=0;orthogonalLoop=1;jettySize=auto;html=1;exitX=0.5;exitY=1;exitDx=0;exitDy=0;entryX=0.5;entryY=0;entryDx=0;entryDy=0;" edge="1" parent="WIyWlLk6GJQsqaUBKTNV-1" source="8osJTeNLlfQxz4slNSNz-18" target="8osJTeNLlfQxz4slNSNz-32">
          <mxGeometry relative="1" as="geometry" />
        </mxCell>
        <mxCell id="8osJTeNLlfQxz4slNSNz-34" value="YES&lt;br&gt;" style="edgeLabel;html=1;align=center;verticalAlign=middle;resizable=0;points=[];" vertex="1" connectable="0" parent="8osJTeNLlfQxz4slNSNz-33">
          <mxGeometry x="-0.5867" y="-3" relative="1" as="geometry">
            <mxPoint x="3" y="10" as="offset" />
          </mxGeometry>
        </mxCell>
        <mxCell id="8osJTeNLlfQxz4slNSNz-46" style="edgeStyle=orthogonalEdgeStyle;rounded=0;orthogonalLoop=1;jettySize=auto;html=1;exitX=1;exitY=0.5;exitDx=0;exitDy=0;entryX=1;entryY=0.75;entryDx=0;entryDy=0;" edge="1" parent="WIyWlLk6GJQsqaUBKTNV-1" source="8osJTeNLlfQxz4slNSNz-18" target="8osJTeNLlfQxz4slNSNz-43">
          <mxGeometry relative="1" as="geometry">
            <mxPoint x="370" y="670" as="targetPoint" />
            <Array as="points">
              <mxPoint x="350" y="420" />
              <mxPoint x="350" y="665" />
            </Array>
          </mxGeometry>
        </mxCell>
        <mxCell id="8osJTeNLlfQxz4slNSNz-47" value="NO" style="edgeLabel;html=1;align=center;verticalAlign=middle;resizable=0;points=[];" vertex="1" connectable="0" parent="8osJTeNLlfQxz4slNSNz-46">
          <mxGeometry x="-0.2482" y="-1" relative="1" as="geometry">
            <mxPoint x="1" y="-2" as="offset" />
          </mxGeometry>
        </mxCell>
        <mxCell id="8osJTeNLlfQxz4slNSNz-18" value="Is there F0 to extract?" style="rhombus;whiteSpace=wrap;html=1;" vertex="1" parent="WIyWlLk6GJQsqaUBKTNV-1">
          <mxGeometry x="165" y="370" width="110" height="100" as="geometry" />
        </mxCell>
        <mxCell id="8osJTeNLlfQxz4slNSNz-24" style="edgeStyle=orthogonalEdgeStyle;rounded=0;orthogonalLoop=1;jettySize=auto;html=1;exitX=1;exitY=0.5;exitDx=0;exitDy=0;endArrow=diamond;endFill=0;entryX=0;entryY=0.5;entryDx=0;entryDy=0;" edge="1" parent="WIyWlLk6GJQsqaUBKTNV-1" source="8osJTeNLlfQxz4slNSNz-22" target="8osJTeNLlfQxz4slNSNz-18">
          <mxGeometry relative="1" as="geometry">
            <mxPoint x="160" y="420" as="targetPoint" />
          </mxGeometry>
        </mxCell>
        <mxCell id="8osJTeNLlfQxz4slNSNz-22" value="F0Detection(MFCC)" style="swimlane;whiteSpace=wrap;html=1;" vertex="1" parent="WIyWlLk6GJQsqaUBKTNV-1">
          <mxGeometry x="-150" y="280" width="180" height="60" as="geometry" />
        </mxCell>
        <mxCell id="8osJTeNLlfQxz4slNSNz-23" value="&lt;b&gt;return List(boolean)&lt;/b&gt;" style="text;html=1;align=center;verticalAlign=middle;resizable=0;points=[];autosize=1;strokeColor=none;fillColor=none;" vertex="1" parent="8osJTeNLlfQxz4slNSNz-22">
          <mxGeometry x="-5" y="30" width="140" height="30" as="geometry" />
        </mxCell>
        <mxCell id="8osJTeNLlfQxz4slNSNz-53" style="edgeStyle=orthogonalEdgeStyle;rounded=0;orthogonalLoop=1;jettySize=auto;html=1;exitX=0;exitY=0.5;exitDx=0;exitDy=0;entryX=0;entryY=0.75;entryDx=0;entryDy=0;" edge="1" parent="WIyWlLk6GJQsqaUBKTNV-1" source="8osJTeNLlfQxz4slNSNz-32" target="8osJTeNLlfQxz4slNSNz-35">
          <mxGeometry relative="1" as="geometry">
            <mxPoint x="100" y="790" as="targetPoint" />
            <Array as="points">
              <mxPoint x="90" y="550" />
              <mxPoint x="90" y="775" />
            </Array>
          </mxGeometry>
        </mxCell>
        <mxCell id="8osJTeNLlfQxz4slNSNz-32" value="Partial Picth Shifting" style="rounded=0;whiteSpace=wrap;html=1;" vertex="1" parent="WIyWlLk6GJQsqaUBKTNV-1">
          <mxGeometry x="160" y="520" width="120" height="60" as="geometry" />
        </mxCell>
        <mxCell id="8osJTeNLlfQxz4slNSNz-55" style="edgeStyle=orthogonalEdgeStyle;rounded=0;orthogonalLoop=1;jettySize=auto;html=1;exitX=1;exitY=0.5;exitDx=0;exitDy=0;entryX=1;entryY=0.5;entryDx=0;entryDy=0;" edge="1" parent="WIyWlLk6GJQsqaUBKTNV-1" source="8osJTeNLlfQxz4slNSNz-35" target="8osJTeNLlfQxz4slNSNz-56">
          <mxGeometry relative="1" as="geometry">
            <mxPoint x="10" y="830" as="targetPoint" />
            <Array as="points">
              <mxPoint x="300" y="760" />
              <mxPoint x="300" y="810" />
              <mxPoint x="30" y="810" />
              <mxPoint x="30" y="760" />
            </Array>
          </mxGeometry>
        </mxCell>
        <mxCell id="8osJTeNLlfQxz4slNSNz-35" value="(Spec)^(-1)" style="rounded=0;whiteSpace=wrap;html=1;" vertex="1" parent="WIyWlLk6GJQsqaUBKTNV-1">
          <mxGeometry x="160" y="730" width="120" height="60" as="geometry" />
        </mxCell>
        <mxCell id="8osJTeNLlfQxz4slNSNz-63" style="edgeStyle=orthogonalEdgeStyle;rounded=0;orthogonalLoop=1;jettySize=auto;html=1;exitX=1;exitY=0.5;exitDx=0;exitDy=0;entryX=0;entryY=0.25;entryDx=0;entryDy=0;endArrow=diamond;endFill=0;" edge="1" parent="WIyWlLk6GJQsqaUBKTNV-1" source="8osJTeNLlfQxz4slNSNz-39" target="8osJTeNLlfQxz4slNSNz-32">
          <mxGeometry relative="1" as="geometry">
            <Array as="points">
              <mxPoint x="70" y="595" />
              <mxPoint x="70" y="535" />
            </Array>
          </mxGeometry>
        </mxCell>
        <mxCell id="8osJTeNLlfQxz4slNSNz-39" value="PItchShifting(Spec,k)" style="swimlane;whiteSpace=wrap;html=1;" vertex="1" parent="WIyWlLk6GJQsqaUBKTNV-1">
          <mxGeometry x="-160" y="560" width="180" height="70" as="geometry">
            <mxRectangle x="-160" y="560" width="160" height="30" as="alternateBounds" />
          </mxGeometry>
        </mxCell>
        <mxCell id="8osJTeNLlfQxz4slNSNz-40" value="k - modulation&amp;nbsp;confines&lt;br&gt;&lt;b&gt;return SpecShifted&lt;/b&gt;" style="text;html=1;align=left;verticalAlign=middle;resizable=0;points=[];autosize=1;strokeColor=none;fillColor=none;" vertex="1" parent="8osJTeNLlfQxz4slNSNz-39">
          <mxGeometry x="10" y="30" width="150" height="40" as="geometry" />
        </mxCell>
        <mxCell id="8osJTeNLlfQxz4slNSNz-41" value="SpecSlicer(Spec, F0)" style="swimlane;whiteSpace=wrap;html=1;" vertex="1" parent="WIyWlLk6GJQsqaUBKTNV-1">
          <mxGeometry x="-180" y="350" width="230" height="200" as="geometry">
            <mxRectangle x="-180" y="350" width="160" height="30" as="alternateBounds" />
          </mxGeometry>
        </mxCell>
        <mxCell id="8osJTeNLlfQxz4slNSNz-57" value="&lt;b&gt;return List(SlicedSpec), List(k),&lt;/b&gt;" style="text;html=1;align=center;verticalAlign=middle;resizable=0;points=[];autosize=1;strokeColor=none;fillColor=none;" vertex="1" parent="8osJTeNLlfQxz4slNSNz-41">
          <mxGeometry x="5" y="170" width="200" height="30" as="geometry" />
        </mxCell>
        <mxCell id="8osJTeNLlfQxz4slNSNz-58" value="&lt;div style=&quot;text-align: left;&quot;&gt;&lt;span style=&quot;background-color: initial;&quot;&gt;Devied spectogram in to 3 main parts&lt;/span&gt;&lt;/div&gt;&lt;div style=&quot;text-align: left;&quot;&gt;&lt;span style=&quot;background-color: initial;&quot;&gt;- 1st from 0 to bit above F0&lt;/span&gt;&lt;/div&gt;&lt;div style=&quot;text-align: left;&quot;&gt;&lt;span style=&quot;background-color: initial;&quot;&gt;(not to be Shifted)&lt;/span&gt;&lt;/div&gt;&lt;div style=&quot;text-align: left;&quot;&gt;&lt;span style=&quot;background-color: initial;&quot;&gt;- 2nd bit above F0 to&amp;nbsp;&lt;/span&gt;&lt;/div&gt;&lt;div style=&quot;text-align: left;&quot;&gt;&lt;span style=&quot;background-color: initial;&quot;&gt;bit under 1st harmonic&lt;/span&gt;&lt;/div&gt;&lt;div style=&quot;text-align: left;&quot;&gt;&lt;span style=&quot;background-color: initial;&quot;&gt;(to be shifted with inconstant k to fill&amp;nbsp;&lt;/span&gt;&lt;/div&gt;&lt;div style=&quot;text-align: left;&quot;&gt;&lt;span style=&quot;background-color: initial;&quot;&gt;gap bitwen 1st and 3rd part)&lt;/span&gt;&lt;/div&gt;&lt;div style=&quot;text-align: left;&quot;&gt;&lt;span style=&quot;background-color: initial;&quot;&gt;- 3rd bit under 1st harmonic F0 to&lt;/span&gt;&lt;/div&gt;&lt;div style=&quot;text-align: left;&quot;&gt;&lt;span style=&quot;background-color: initial;&quot;&gt;&amp;nbsp;end of spectrum (to be shifted&amp;nbsp;&lt;/span&gt;&lt;/div&gt;&lt;div style=&quot;text-align: left;&quot;&gt;&lt;span style=&quot;background-color: initial;&quot;&gt;with constant k)&lt;/span&gt;&lt;/div&gt;" style="text;html=1;align=center;verticalAlign=middle;resizable=0;points=[];autosize=1;strokeColor=none;fillColor=none;" vertex="1" parent="8osJTeNLlfQxz4slNSNz-41">
          <mxGeometry x="10" y="20" width="220" height="160" as="geometry" />
        </mxCell>
        <mxCell id="8osJTeNLlfQxz4slNSNz-45" style="edgeStyle=orthogonalEdgeStyle;rounded=0;orthogonalLoop=1;jettySize=auto;html=1;entryX=1;entryY=0.5;entryDx=0;entryDy=0;" edge="1" parent="WIyWlLk6GJQsqaUBKTNV-1" target="8osJTeNLlfQxz4slNSNz-43">
          <mxGeometry relative="1" as="geometry">
            <mxPoint x="320" y="660" as="targetPoint" />
            <mxPoint x="300" y="550" as="sourcePoint" />
            <Array as="points">
              <mxPoint x="300" y="650" />
            </Array>
          </mxGeometry>
        </mxCell>
        <mxCell id="8osJTeNLlfQxz4slNSNz-52" style="edgeStyle=orthogonalEdgeStyle;rounded=0;orthogonalLoop=1;jettySize=auto;html=1;exitX=0;exitY=0.5;exitDx=0;exitDy=0;entryX=0;entryY=0.5;entryDx=0;entryDy=0;" edge="1" parent="WIyWlLk6GJQsqaUBKTNV-1" source="8osJTeNLlfQxz4slNSNz-43" target="8osJTeNLlfQxz4slNSNz-35">
          <mxGeometry relative="1" as="geometry">
            <mxPoint x="120" y="760" as="targetPoint" />
            <Array as="points">
              <mxPoint x="110" y="650" />
              <mxPoint x="110" y="760" />
            </Array>
          </mxGeometry>
        </mxCell>
        <mxCell id="8osJTeNLlfQxz4slNSNz-54" value="Spec Shifted" style="edgeLabel;html=1;align=center;verticalAlign=middle;resizable=0;points=[];" vertex="1" connectable="0" parent="8osJTeNLlfQxz4slNSNz-52">
          <mxGeometry x="-0.0876" y="1" relative="1" as="geometry">
            <mxPoint x="-1" as="offset" />
          </mxGeometry>
        </mxCell>
        <mxCell id="8osJTeNLlfQxz4slNSNz-43" value="Total Picth Shifting" style="rounded=0;whiteSpace=wrap;html=1;" vertex="1" parent="WIyWlLk6GJQsqaUBKTNV-1">
          <mxGeometry x="160" y="620" width="120" height="60" as="geometry" />
        </mxCell>
        <mxCell id="8osJTeNLlfQxz4slNSNz-56" value="AudioOut.WAV" style="rounded=1;whiteSpace=wrap;html=1;" vertex="1" parent="WIyWlLk6GJQsqaUBKTNV-1">
          <mxGeometry x="-110" y="730" width="120" height="60" as="geometry" />
        </mxCell>
        <mxCell id="8osJTeNLlfQxz4slNSNz-64" style="edgeStyle=orthogonalEdgeStyle;rounded=0;orthogonalLoop=1;jettySize=auto;html=1;exitX=1;exitY=0.5;exitDx=0;exitDy=0;entryX=0;entryY=1;entryDx=0;entryDy=0;endArrow=diamond;endFill=0;" edge="1" parent="WIyWlLk6GJQsqaUBKTNV-1" source="8osJTeNLlfQxz4slNSNz-60" target="8osJTeNLlfQxz4slNSNz-35">
          <mxGeometry relative="1" as="geometry">
            <Array as="points">
              <mxPoint x="70" y="665" />
              <mxPoint x="70" y="790" />
            </Array>
          </mxGeometry>
        </mxCell>
        <mxCell id="8osJTeNLlfQxz4slNSNz-60" value="Spec2Wav(Spec)" style="swimlane;whiteSpace=wrap;html=1;" vertex="1" parent="WIyWlLk6GJQsqaUBKTNV-1">
          <mxGeometry x="-170" y="640" width="200" height="50" as="geometry" />
        </mxCell>
        <mxCell id="8osJTeNLlfQxz4slNSNz-61" value="&lt;b&gt;return Audio_Out.wav&lt;/b&gt;" style="text;html=1;align=center;verticalAlign=middle;resizable=0;points=[];autosize=1;strokeColor=none;fillColor=none;" vertex="1" parent="8osJTeNLlfQxz4slNSNz-60">
          <mxGeometry y="20" width="150" height="30" as="geometry" />
        </mxCell>
        <mxCell id="8osJTeNLlfQxz4slNSNz-62" style="edgeStyle=orthogonalEdgeStyle;rounded=0;orthogonalLoop=1;jettySize=auto;html=1;entryX=0;entryY=0;entryDx=0;entryDy=0;endArrow=diamond;endFill=0;" edge="1" parent="WIyWlLk6GJQsqaUBKTNV-1" source="8osJTeNLlfQxz4slNSNz-58" target="8osJTeNLlfQxz4slNSNz-32">
          <mxGeometry relative="1" as="geometry">
            <Array as="points">
              <mxPoint x="110" y="520" />
              <mxPoint x="110" y="520" />
            </Array>
          </mxGeometry>
        </mxCell>
      </root>
    </mxGraphModel>
  </diagram>
</mxfile>
